<svg width="150" height="150" viewBox="0 0 150 150" fill="none" xmlns="http://www.w3.org/2000/svg">
<g clip-path="url(#clip0_860_545)">
<path fill-rule="evenodd" clip-rule="evenodd" d="M102.045 86.7506C99.8219 88.3741 98.8954 91.2241 99.7425 93.8623L112.722 133.815L78.7336 109.118C76.4925 107.495 73.4925 107.495 71.2602 109.118L37.2719 133.815L50.2602 93.8447C51.1072 91.2241 50.1807 88.3741 47.9484 86.7506L13.9513 62.0535H55.9689C58.7307 62.0535 61.166 60.28 62.0131 57.6594L75.0014 17.6977L87.9807 57.6506C88.3914 58.9304 89.1982 60.0465 90.2846 60.838C91.371 61.6294 92.6808 62.055 94.0249 62.0535H136.051L102.045 86.7506ZM149.684 57.6241C148.828 54.9947 146.401 53.23 143.64 53.23H95.816L81.0454 7.75344C80.1896 5.12414 77.7631 3.35938 75.0014 3.35938C72.2396 3.35938 69.8042 5.12406 68.9572 7.75352L54.1777 53.23H6.35431C3.59252 53.23 1.16603 54.9947 0.310096 57.6241C-0.536935 60.2535 0.389549 63.1035 2.62189 64.727L41.3131 92.83L26.5248 138.315C25.6778 140.945 26.6042 143.795 28.8454 145.418C29.9571 146.23 31.2719 146.636 32.5689 146.636C33.8837 146.636 35.1984 146.23 36.3101 145.409L75.0014 117.306L113.675 145.409C115.907 147.042 118.916 147.042 121.157 145.418C123.39 143.795 124.316 140.945 123.469 138.307L108.681 92.8299L147.372 64.727C149.613 63.1035 150.54 60.2535 149.684 57.6241Z" fill="#003399"/>
<path d="M90.1812 71.9168C90.1819 71.9118 90.1862 71.9086 90.1866 71.9036C90.1858 71.9086 90.1819 71.9122 90.1812 71.9168Z" fill="#FDF5F2"/>
<path d="M81.4312 87.2898C81.4312 87.6687 81.5817 88.0321 81.8496 88.3C82.1175 88.5679 82.4808 88.7184 82.8597 88.7184C83.2385 88.7184 83.6019 88.5679 83.8698 88.3C84.1377 88.0321 84.2882 87.6687 84.2882 87.2898C84.2882 86.911 84.1377 86.5476 83.8698 86.2797C83.6019 86.0118 83.2385 85.8613 82.8597 85.8613C82.4808 85.8613 82.1175 86.0118 81.8496 86.2797C81.5817 86.5476 81.4312 86.911 81.4312 87.2898Z" fill="#0DDE65"/>
<path d="M60.7132 88.7078C60.7132 87.5277 61.6738 86.5671 62.8539 86.5671H72.1324V83.7101H67.1472C65.9671 83.7101 65.0066 82.7496 65.0066 81.5695C65.0066 80.3886 65.9671 79.4281 67.1472 79.4281H75.0042V76.571H62.8484C61.6683 76.571 60.7078 75.6105 60.7078 74.4304C60.7078 73.2503 61.6683 72.2898 62.8484 72.2898H82.864C85.6207 72.2898 87.864 70.0464 87.864 67.2898C87.864 64.5332 85.6207 62.2898 82.864 62.2898H67.1496C64.3929 62.2898 62.1496 64.5332 62.1496 67.2898C62.1496 68.0671 62.3433 68.7945 62.6613 69.4515C59.9937 69.5523 57.8503 71.7386 57.8503 74.4304C57.8503 77.1222 59.9929 79.3082 62.6605 79.4093C62.3429 80.066 62.1496 80.7929 62.1496 81.5699C62.1496 82.3468 62.3429 83.0738 62.6605 83.73C59.996 83.8343 57.8558 86.0187 57.8558 88.7085C57.8558 91.4644 60.0976 93.7066 62.8539 93.7066H72.1515V90.8496H62.8539C61.6738 90.8488 60.7132 89.8882 60.7132 88.7078ZM67.1496 65.1464H82.864C84.0457 65.1464 85.007 66.1078 85.007 67.2894C85.007 68.471 84.0457 69.4324 82.864 69.4324H67.1496C65.9679 69.4324 65.0066 68.471 65.0066 67.2894C65.0066 66.1078 65.9679 65.1464 67.1496 65.1464Z" fill="#0DDE65"/>
<path d="M89.2863 80.8626V80.1446C89.2863 76.5942 86.4082 73.7161 82.8578 73.7161C79.3074 73.7161 76.4293 76.5942 76.4293 80.1446V80.8626H73.5742V93.7165H92.1457V80.8626H89.2863ZM79.2863 80.145C79.2863 78.1758 80.8887 76.5735 82.8578 76.5735C84.827 76.5735 86.4293 78.1758 86.4293 80.145V80.8594H79.2863V80.145ZM89.2883 90.8598H76.4313V83.72H89.2883V90.8598Z" fill="#0DDE65"/>
</g>
<defs>
<clipPath id="clip0_860_545">
<rect width="150" height="150" fill="white"/>
</clipPath>
</defs>
</svg>
