<svg width="72" height="62" viewBox="0 0 72 62" fill="none" xmlns="http://www.w3.org/2000/svg">
<path d="M9.70427 32.0056C9.58039 36.5954 6.04241 40.1328 1.45313 40.2561C0.938056 40.2706 0.936942 41.0703 1.45313 41.0564C6.48213 40.9202 10.3688 37.0346 10.5044 32.0061C10.5178 31.4888 9.71767 31.4905 9.70427 32.0056Z" fill="#0DDE65"/>
<path d="M18.7798 40.1827C14.19 40.0593 10.652 36.522 10.5287 31.9321C10.5142 31.417 9.71451 31.4154 9.72845 31.9321C9.8635 36.9611 13.7507 40.8472 18.7797 40.9824C19.2954 40.9974 19.2943 40.1972 18.7798 40.1827Z" fill="#0DDE65"/>
<path d="M10.4542 49.2585C10.5781 44.6698 14.116 41.1312 18.7048 41.0079C19.2198 40.9934 19.2209 40.1938 18.7048 40.2077C13.6769 40.3439 9.78962 44.2311 9.65448 49.258C9.64053 49.7758 10.4408 49.7741 10.4542 49.2585Z" fill="#0DDE65"/>
<path d="M1.30419 41.0798C5.89404 41.2031 9.43204 44.7422 9.55533 49.3321C9.56984 49.8471 10.3695 49.8488 10.3556 49.3321C10.2205 44.3031 6.33327 40.4158 1.30427 40.2802C0.788644 40.2657 0.789672 41.0658 1.30419 41.0798Z" fill="#0DDE65"/>
<path d="M17.6329 51.7829C17.5687 54.1506 15.7439 55.9743 13.3767 56.0379C12.8616 56.0524 12.8605 56.8521 13.3767 56.8381C16.1847 56.7622 18.3577 54.5904 18.4326 51.7828C18.4476 51.2672 17.6474 51.2689 17.6329 51.7829Z" fill="#0DDE65"/>
<path d="M22.7028 56C20.3357 55.9358 18.5092 54.1121 18.4449 51.7439C18.4304 51.2288 17.6308 51.2271 17.6447 51.7439C17.7206 54.5519 19.8941 56.7249 22.7021 56.7997C23.2183 56.8142 23.2179 56.0145 22.7028 56Z" fill="#0DDE65"/>
<path d="M18.4071 61.0686C18.4713 58.7014 20.2944 56.8772 22.6615 56.8136C23.1766 56.7991 23.1777 55.9994 22.6615 56.0134C19.8535 56.0893 17.6822 58.2611 17.6074 61.0686C17.5923 61.5848 18.3926 61.5831 18.4071 61.0686Z" fill="#0DDE65"/>
<path d="M13.2985 56.8514C15.6657 56.9156 17.49 58.7387 17.553 61.1058C17.5675 61.6209 18.3671 61.6226 18.3532 61.1058C18.2773 58.2978 16.106 56.1266 13.299 56.0517C12.7823 56.0377 12.7829 56.8375 13.2985 56.8514Z" fill="#0DDE65"/>
<path d="M25.2585 42.5729C25.2139 44.2246 23.941 45.4976 22.2887 45.5427C21.8255 45.5556 21.8238 46.2754 22.2887 46.2626C24.3373 46.2074 25.9231 44.622 25.979 42.5729C25.9912 42.1086 25.2708 42.1097 25.2585 42.5729Z" fill="#0DDE65"/>
<path d="M28.9571 45.5142C27.3054 45.4695 26.0308 44.1972 25.9866 42.5443C25.9738 42.0811 25.2539 42.0795 25.2668 42.5443C25.322 44.594 26.9091 46.1787 28.9582 46.234C29.4214 46.2468 29.4202 45.5259 28.9571 45.5142Z" fill="#0DDE65"/>
<path d="M25.9586 49.2143C26.0032 47.5626 27.2744 46.2896 28.9273 46.2445C29.3904 46.2316 29.3921 45.5118 28.9273 45.5246C26.8787 45.5798 25.2938 47.1663 25.2387 49.2143C25.2259 49.6791 25.9463 49.6775 25.9586 49.2143Z" fill="#0DDE65"/>
<path d="M22.2313 46.2713C23.883 46.3159 25.1554 47.5883 25.2 49.24C25.2128 49.7032 25.9327 49.7049 25.9199 49.24C25.8646 47.1914 24.2799 45.6066 22.2313 45.5514C21.7665 45.5386 21.7681 46.2585 22.2313 46.2713Z" fill="#0DDE65"/>
<path d="M58.2984 1.57424C58.8536 1.59489 59.4089 1.62446 59.9624 1.66409C60.4774 1.70036 60.4746 0.900129 59.9624 0.863857C59.4088 0.824795 58.8536 0.795219 58.2984 0.774014C57.7822 0.755041 57.7839 1.55527 58.2984 1.57424Z" fill="#0DDE65"/>
<path d="M31.4413 9.37848C39.0261 4.25677 47.8213 1.55377 56.9755 1.54705C57.4917 1.54705 57.4917 0.746826 56.9755 0.746826C47.6927 0.752965 38.7313 3.4924 31.037 8.68768C30.6123 8.97451 31.0124 9.66815 31.441 9.37853L31.4413 9.37848Z" fill="#0DDE65"/>
<path d="M20.4341 20.1384C23.1991 16.3555 26.4766 13.0424 30.231 10.2382C30.6389 9.93356 30.2416 9.23824 29.827 9.54796C25.9581 12.4375 22.5931 15.836 19.7438 19.7344C19.4386 20.1518 20.1333 20.5502 20.4341 20.1384Z" fill="#0DDE65"/>
<path d="M18.6071 22.8899C18.971 22.2995 19.3471 21.7163 19.7349 21.1422C20.0245 20.7136 19.3314 20.3135 19.0446 20.7381C18.6557 21.3135 18.2795 21.8955 17.9168 22.4859C17.6445 22.9267 18.3365 23.3285 18.6071 22.8899Z" fill="#0DDE65"/>
<path d="M13.717 34.0772C14.7488 30.5163 16.1745 27.1302 18.0033 23.9059C18.2583 23.4561 17.5674 23.0538 17.313 23.5019C15.4497 26.7876 13.9971 30.2363 12.9464 33.8652C12.8008 34.3613 13.5736 34.5705 13.717 34.0772Z" fill="#0DDE65"/>
<path d="M57.0999 7.20003C59.3119 7.26308 61.5021 7.47459 63.6853 7.83786C64.1903 7.92212 64.4052 7.15147 63.8979 7.06666C61.6456 6.69054 59.3818 6.4651 57.0993 6.40036C56.5831 6.38529 56.5848 7.18495 57.0999 7.20003Z" fill="#0DDE65"/>
<path d="M53.4042 7.26697C54.1693 7.22233 54.9343 7.19722 55.701 7.18941C56.2172 7.18438 56.2178 6.38472 55.701 6.38918C54.9349 6.39699 54.1692 6.42266 53.4042 6.46675C52.8914 6.49744 52.888 7.2971 53.4042 7.26697Z" fill="#0DDE65"/>
<path d="M27.4255 17.6327C34.4167 11.8537 42.8898 8.29114 51.9184 7.38214C52.4273 7.3308 52.4318 6.53114 51.9184 6.58191C42.6605 7.51494 34.0312 11.1405 26.8612 17.0669C26.4633 17.3956 27.0325 17.9586 27.4265 17.6327L27.4255 17.6327Z" fill="#0DDE65"/>
<path d="M14.5499 35.51C17.1331 29.0468 21.1141 23.3398 26.2553 18.65C26.6376 18.3012 26.0695 17.737 25.6895 18.0841C20.4401 22.8704 16.4144 28.7001 13.7782 35.2955C13.5868 35.776 14.3614 35.9814 14.55 35.5087L14.5499 35.51Z" fill="#0DDE65"/>
<path d="M48.9941 12.6256C55.0471 11.7645 61.1124 12.1278 67.0341 13.649C67.5341 13.7779 67.7462 13.0056 67.2467 12.8778C61.1797 11.3192 54.985 10.9721 48.7824 11.8544C48.2724 11.9263 48.49 12.6975 48.9945 12.6256H48.9941Z" fill="#0DDE65"/>
<path d="M42.9942 13.9513C44.5176 13.5087 46.0572 13.1432 47.6163 12.8519C48.1236 12.7576 47.9076 11.9864 47.4037 12.0807C45.8445 12.3709 44.3044 12.7375 42.7815 13.1801C42.2871 13.324 42.4975 14.0958 42.9942 13.9513Z" fill="#0DDE65"/>
<path d="M39.6469 15.0813C40.3043 14.8319 40.9667 14.5975 41.6341 14.3765C42.1212 14.2158 41.9131 13.4429 41.4214 13.6053C40.7535 13.8263 40.0916 14.0612 39.4343 14.3101C38.9566 14.4909 39.1637 15.2643 39.6469 15.0813Z" fill="#0DDE65"/>
<path d="M15.5755 36.91C20.4298 27.3157 28.4505 19.8414 38.3284 15.6071C38.8022 15.4046 38.3942 14.7154 37.9249 14.9169C27.9355 19.1993 19.7935 26.8064 14.8864 36.5069C14.6537 36.965 15.3439 37.3707 15.5766 36.9098L15.5755 36.91Z" fill="#0DDE65"/>
<path d="M69.1527 21.0499C69.8023 21.292 70.4457 21.5476 71.0846 21.816C71.56 22.0158 71.7654 21.2418 71.2972 21.0448C70.6588 20.7759 70.0143 20.5203 69.3653 20.2787C68.8815 20.0979 68.6745 20.8713 69.1527 21.0499Z" fill="#0DDE65"/>
<path d="M63.6127 19.3856C65.0586 19.7249 66.4833 20.1305 67.8911 20.5999C68.3816 20.7639 68.5903 19.991 68.1037 19.8287C66.6958 19.3582 65.2712 18.9537 63.8253 18.6144C63.3231 18.4972 63.1105 19.2684 63.6127 19.3856Z" fill="#0DDE65"/>
<path d="M35.927 21.9099C44.2747 18.401 53.3398 17.4004 62.2427 19.0923C62.7466 19.1883 62.9609 18.4171 62.4553 18.3211C53.4134 16.603 44.1996 17.5717 35.7139 21.1381C35.2457 21.3345 35.451 22.1096 35.9265 21.9099L35.927 21.9099Z" fill="#0DDE65"/>
<path d="M16.8485 37.5485C21.3998 31.0339 27.4998 25.9006 34.6671 22.4785C35.1325 22.2558 34.7262 21.5667 34.263 21.7882C26.9685 25.2715 20.7865 30.5192 16.1573 37.1453C15.8604 37.5683 16.5541 37.9679 16.8476 37.5482L16.8485 37.5485Z" fill="#0DDE65"/>
<path d="M55.386 34.4377C55.3866 34.4339 55.3898 34.4315 55.3901 34.4277C55.3895 34.4315 55.3866 34.4342 55.386 34.4377Z" fill="#FDF5F2"/>
<path d="M48.8235 45.9674C48.8235 46.2515 48.9364 46.524 49.1373 46.725C49.3382 46.9259 49.6107 47.0388 49.8949 47.0388C50.179 47.0388 50.4515 46.9259 50.6525 46.725C50.8534 46.524 50.9663 46.2515 50.9663 45.9674C50.9663 45.6832 50.8534 45.4107 50.6525 45.2098C50.4515 45.0089 50.179 44.896 49.8949 44.896C49.6107 44.896 49.3382 45.0089 49.1373 45.2098C48.9364 45.4107 48.8235 45.6832 48.8235 45.9674Z" fill="#003399"/>
<path d="M33.2849 47.0308C33.2849 46.1457 34.0053 45.4253 34.8903 45.4253H41.8492V43.2825H38.1104C37.2253 43.2825 36.5049 42.5621 36.5049 41.6771C36.5049 40.7914 37.2253 40.071 38.1104 40.071H44.0031V37.9282H34.8862C34.0012 37.9282 33.2808 37.2078 33.2808 36.3228C33.2808 35.4377 34.0012 34.7173 34.8862 34.7173H49.8979C51.9654 34.7173 53.6479 33.0348 53.6479 30.9673C53.6479 28.8998 51.9654 27.2173 49.8979 27.2173H38.1121C36.0446 27.2173 34.3621 28.8998 34.3621 30.9673C34.3621 31.5503 34.5074 32.0958 34.7459 32.5886C32.7452 32.6642 31.1377 34.3039 31.1377 36.3228C31.1377 38.3416 32.7446 39.9811 34.7453 40.0569C34.5071 40.5494 34.3621 41.0946 34.3621 41.6773C34.3621 42.2601 34.5071 42.8053 34.7453 43.2975C32.747 43.3757 31.1418 45.014 31.1418 47.0313C31.1418 49.0982 32.8231 50.7799 34.8903 50.7799H41.8636V48.6371H34.8903C34.0053 48.6365 33.2849 47.9161 33.2849 47.0308ZM38.1121 29.3598H49.8979C50.7842 29.3598 51.5052 30.0808 51.5052 30.967C51.5052 31.8532 50.7842 32.5742 49.8979 32.5742H38.1121C37.2259 32.5742 36.5049 31.8532 36.5049 30.967C36.5049 30.0808 37.2259 29.3598 38.1121 29.3598Z" fill="#003399"/>
<path d="M54.7147 41.147V40.6085C54.7147 37.9457 52.5562 35.7871 49.8934 35.7871C47.2306 35.7871 45.072 37.9457 45.072 40.6085V41.147H42.9307V50.7874H56.8593V41.147H54.7147ZM47.2147 40.6088C47.2147 39.1319 48.4165 37.9302 49.8934 37.9302C51.3702 37.9302 52.572 39.1319 52.572 40.6088V41.1446H47.2147V40.6088ZM54.7162 48.6449H45.0734V43.29H54.7162V48.6449Z" fill="#003399"/>
</svg>
