<svg width="48" height="48" viewBox="0 0 48 48" fill="none" xmlns="http://www.w3.org/2000/svg">
<path fill-rule="evenodd" clip-rule="evenodd" d="M33.1434 1.8353C36.3627 3.17081 39.2528 5.18268 41.6152 7.73271C43.9776 10.2827 45.7563 13.3105 46.829 16.6079C47.9017 19.9054 48.2431 23.3944 47.8297 26.8353C47.4163 30.2763 46.2579 33.5875 44.4341 36.5417C42.6102 39.4958 40.1642 42.0228 37.264 43.949C34.3639 45.8752 31.0782 47.1551 27.6329 47.7006C24.1876 48.2462 20.6642 48.0444 17.3048 47.1094C13.9454 46.1743 10.8296 44.5279 8.17141 42.2835C6.84162 41.0203 5.1307 37.2758 5.58639 34.3461C6.04208 31.4164 10.744 31.5686 13.5486 32.4945C10.5037 34.1033 12.3058 37.8807 18.8139 39.8517C27.5964 42.5139 38.4874 39.0616 42.4271 29.6717C46.6775 19.5206 41.3334 7.65359 30.4921 3.1726C20.1354 -1.10264 5.26326 4.61689 0.789185 16.8789C1.01013 16.1766 1.26559 15.4771 1.55558 14.7804C4.01915 8.90564 8.72974 4.24246 14.6525 1.81522C20.5753 -0.612013 27.226 -0.604789 33.1434 1.8353Z" fill="#181C4B"/>
<path fill-rule="evenodd" clip-rule="evenodd" d="M33.1434 1.8353C36.3627 3.17081 39.2528 5.18268 41.6152 7.73271C43.9776 10.2827 45.7563 13.3105 46.829 16.6079C47.9017 19.9054 48.2431 23.3944 47.8297 26.8353C47.4163 30.2763 46.2579 33.5875 44.4341 36.5417C42.6102 39.4958 40.1642 42.0228 37.264 43.949C34.3639 45.8752 31.0782 47.1551 27.6329 47.7006C24.1876 48.2462 20.6642 48.0444 17.3048 47.1094C13.9454 46.1743 10.8296 44.5279 8.17141 42.2835C6.84162 41.0203 5.1307 37.2758 5.58639 34.3461C6.04208 31.4164 10.744 31.5686 13.5486 32.4945C10.5037 34.1033 12.3058 37.8807 18.8139 39.8517C27.5964 42.5139 38.4874 39.0616 42.4271 29.6717C46.6775 19.5206 41.3334 7.65359 30.4921 3.1726C20.1354 -1.10264 5.26326 4.61689 0.789185 16.8789C1.01013 16.1766 1.26559 15.4771 1.55558 14.7804C4.01915 8.90564 8.72974 4.24246 14.6525 1.81522C20.5753 -0.612013 27.226 -0.604789 33.1434 1.8353Z" fill="#243E90"/>
<path d="M7.96838 36.1061C7.9311 36.1637 7.89381 36.2295 7.86067 36.2913C7.58833 36.7724 7.38081 37.2871 7.24341 37.822C7.39977 37.218 7.64399 36.64 7.96838 36.1061ZM32.9238 21.0625C30.2808 23.2598 26.8341 23.5725 23.1098 23.5725C22.3683 23.5725 21.6185 23.5725 20.8604 23.5478C20.1022 23.5231 19.3359 23.5231 18.5653 23.5231C15.8187 23.5231 13.0349 23.6836 10.4084 24.5724C2.6202 27.21 0.466016 35.5918 8.19208 42.2865C7.88776 41.8877 7.64096 41.4487 7.45883 40.9821C6.51247 39.7543 5.86327 38.3267 5.56149 36.8097C5.27966 35.3019 5.54847 33.7437 6.3196 32.4151C6.89492 31.4536 7.69312 30.6424 8.64778 30.0492C8.84248 29.9257 9.06204 29.8105 9.24846 29.7035C10.853 28.9238 12.5863 28.4387 14.3647 28.2716C16.2993 28.0288 18.2588 27.963 20.2017 27.8066C22.3995 27.6972 24.5722 27.2917 26.6601 26.601C29.1989 25.7159 31.3623 24.0049 32.7995 21.7456C32.8492 21.5234 32.8989 21.2929 32.9404 21.0625" fill="#56BA5F"/>
<path d="M7.96838 36.1061C7.9311 36.1637 7.89381 36.2295 7.86067 36.2913C7.58833 36.7724 7.38081 37.2871 7.24341 37.822C7.39977 37.218 7.64399 36.64 7.96838 36.1061ZM32.9238 21.0625C30.2808 23.2598 26.8341 23.5725 23.1098 23.5725C22.3683 23.5725 21.6185 23.5725 20.8604 23.5478C20.1022 23.5231 19.3359 23.5231 18.5653 23.5231C15.8187 23.5231 13.0349 23.6836 10.4084 24.5724C2.6202 27.21 0.466016 35.5918 8.19208 42.2865C7.88776 41.8877 7.64096 41.4487 7.45883 40.9821C6.51247 39.7543 5.86327 38.3267 5.56149 36.8097C5.27966 35.3019 5.54847 33.7437 6.3196 32.4151C6.89492 31.4536 7.69312 30.6424 8.64778 30.0492C8.84248 29.9257 9.06204 29.8105 9.24846 29.7035C10.853 28.9238 12.5863 28.4387 14.3647 28.2716C16.2993 28.0288 18.2588 27.963 20.2017 27.8066C22.3995 27.6972 24.5722 27.2917 26.6601 26.601C29.1989 25.7159 31.3623 24.0049 32.7995 21.7456C32.8492 21.5234 32.8989 21.2929 32.9404 21.0625" fill="url(#paint0_linear_887_358)"/>
<path d="M32.7829 21.7469C30.1109 33.7003 20.3425 31.0875 13.5237 32.4947C20.3425 31.071 30.0943 33.6839 32.7829 21.7305" fill="#B9B6CA"/>
<path d="M7.24352 37.8453C6.98831 38.8889 7.06354 39.9853 7.45894 40.9849C7.29205 40.5596 7.18337 40.1139 7.13581 39.6599C7.06722 39.0534 7.10365 38.4396 7.24352 37.8453ZM9.53442 34.3231C8.91166 34.8312 8.3819 35.4423 7.96849 36.1294C8.37483 35.417 8.90337 34.7807 9.53027 34.249M13.5238 32.4961C12.7705 32.6487 12.0338 32.8733 11.324 33.1668C12.0324 32.8733 12.7677 32.6487 13.5197 32.4961" fill="#253885"/>
<path d="M32.7829 21.7469C31.3458 24.0063 29.1824 25.7173 26.6435 26.6024C24.5557 27.293 22.383 27.6986 20.1851 27.808C18.2422 27.9643 16.2827 28.0302 14.3481 28.273C12.5697 28.4401 10.8365 28.9252 9.2319 29.7049C9.02891 29.8119 8.81763 29.9271 8.63121 30.0505C7.67655 30.6438 6.87835 31.455 6.30303 32.4165C5.5319 33.7451 5.26309 35.3033 5.54492 36.8111C5.85164 38.3295 6.50656 39.7572 7.45883 40.9835C7.06343 39.9839 6.9882 38.8875 7.24342 37.8439V37.8028C7.3809 37.2517 7.59271 36.7216 7.8731 36.2268C7.90624 36.1651 7.94353 36.0992 7.98081 36.0416C8.39422 35.3545 8.92398 34.7434 9.54674 34.2353H9.56745H9.59231H9.61716H9.63788H9.66688L9.71659 34.2023H9.7373L10.2758 33.7291H10.2966L10.3504 33.6962L10.4084 33.6633L10.4871 33.618L10.6901 33.5069L10.773 33.4617L10.8351 33.4329H10.8558L10.918 33.4041H10.9511H10.9801H11.0008H11.0257H11.0464L11.1044 33.3794C11.8763 32.9985 12.6874 32.7019 13.5237 32.4947C20.3425 31.071 30.0944 33.6839 32.7829 21.7305" fill="url(#paint1_linear_887_358)"/>
<path d="M32.7829 21.7469C31.3458 24.0063 29.1824 25.7173 26.6435 26.6024C24.5557 27.293 22.383 27.6986 20.1851 27.808C18.2422 27.9643 16.2827 28.0302 14.3481 28.273C12.5697 28.4401 10.8365 28.9252 9.2319 29.7049C9.02891 29.8119 8.81763 29.9271 8.63121 30.0505C7.67655 30.6438 6.87835 31.455 6.30303 32.4165C5.5319 33.7451 5.26309 35.3033 5.54492 36.8111C5.85164 38.3295 6.50656 39.7572 7.45883 40.9835C7.06343 39.9839 6.9882 38.8875 7.24342 37.8439V37.8028C7.3809 37.2517 7.59271 36.7216 7.8731 36.2268C7.90624 36.1651 7.94353 36.0992 7.98081 36.0416C8.39422 35.3545 8.92398 34.7434 9.54674 34.2353H9.56745H9.59231H9.61716H9.63788H9.66688L9.71659 34.2023H9.7373L10.2758 33.7291H10.2966L10.3504 33.6962L10.4084 33.6633L10.4871 33.618L10.6901 33.5069L10.773 33.4617L10.8351 33.4329H10.8558L10.918 33.4041H10.9511H10.9801H11.0008H11.0257H11.0464L11.1044 33.3794C11.8763 32.9985 12.6874 32.7019 13.5237 32.4947C20.3425 31.071 30.0944 33.6839 32.7829 21.7305" fill="url(#paint2_linear_887_358)"/>
<path d="M32.7829 21.7469C31.3458 24.0063 29.1824 25.7173 26.6435 26.6024C24.5557 27.293 22.383 27.6986 20.1851 27.808C18.2422 27.9643 16.2827 28.0302 14.3481 28.273C12.5697 28.4401 10.8365 28.9252 9.2319 29.7049C9.02891 29.8119 8.81763 29.9271 8.63121 30.0505C7.67655 30.6438 6.87835 31.455 6.30303 32.4165C5.5319 33.7451 5.26309 35.3033 5.54492 36.8111C5.85164 38.3295 6.50656 39.7572 7.45883 40.9835C7.06343 39.9839 6.9882 38.8875 7.24342 37.8439V37.8028C7.3809 37.2517 7.59271 36.7216 7.8731 36.2268C7.90624 36.1651 7.94353 36.0992 7.98081 36.0416C8.39422 35.3545 8.92398 34.7434 9.54674 34.2353H9.56745H9.59231H9.61716H9.63788H9.66688L9.71659 34.2023H9.7373L10.2758 33.7291H10.2966L10.3504 33.6962L10.4084 33.6633L10.4871 33.618L10.6901 33.5069L10.773 33.4617L10.8351 33.4329H10.8558L10.918 33.4041H10.9511H10.9801H11.0008H11.0257H11.0464L11.1044 33.3794C11.8763 32.9985 12.6874 32.7019 13.5237 32.4947C20.3425 31.071 30.0944 33.6839 32.7829 21.7305" fill="#4B8E52"/>
<path d="M32.7829 21.7469C31.3458 24.0063 29.1824 25.7173 26.6435 26.6024C24.5557 27.293 22.383 27.6986 20.1851 27.808C18.2422 27.9643 16.2827 28.0302 14.3481 28.273C12.5697 28.4401 10.8365 28.9252 9.2319 29.7049C9.02891 29.8119 8.81763 29.9271 8.63121 30.0505C7.67655 30.6438 6.87835 31.455 6.30303 32.4165C5.5319 33.7451 5.26309 35.3033 5.54492 36.8111C5.85164 38.3295 6.50656 39.7572 7.45883 40.9835C7.06343 39.9839 6.9882 38.8875 7.24342 37.8439V37.8028C7.3809 37.2517 7.59271 36.7216 7.8731 36.2268C7.90624 36.1651 7.94353 36.0992 7.98081 36.0416C8.39422 35.3545 8.92398 34.7434 9.54674 34.2353H9.56745H9.59231H9.61716H9.63788H9.66688L9.71659 34.2023H9.7373L10.2758 33.7291H10.2966L10.3504 33.6962L10.4084 33.6633L10.4871 33.618L10.6901 33.5069L10.773 33.4617L10.8351 33.4329H10.8558L10.918 33.4041H10.9511H10.9801H11.0008H11.0257H11.0464L11.1044 33.3794C11.8763 32.9985 12.6874 32.7019 13.5237 32.4947C20.3425 31.071 30.0944 33.6839 32.7829 21.7305" fill="url(#paint3_linear_887_358)"/>
<path d="M12.1111 34.4671C12.1185 35.1937 12.3891 35.8933 12.8733 36.438C12.387 35.8943 12.1148 35.1944 12.1069 34.4671" fill="#C7C4D4"/>
<path d="M13.5237 32.4961C12.6124 32.9858 12.1442 33.6688 12.1152 34.4424C12.1244 34.1755 12.1893 33.9135 12.3058 33.6729C12.5763 33.1626 13.0027 32.7506 13.5237 32.4961Z" fill="#A6A3BC"/>
<path d="M12.111 34.4614C7.02561 35.4501 7.30662 41.0328 8.19206 42.2794C8.19206 42.2053 7.40081 36.6134 12.8774 36.4241C12.3907 35.8806 12.1185 35.1805 12.111 34.4531" fill="#253988"/>
<path d="M12.111 34.4614C7.02561 35.4501 7.30662 41.0328 8.19206 42.2794C8.19206 42.2053 7.40081 36.6134 12.8774 36.4241C12.3907 35.8806 12.1185 35.1805 12.111 34.4531" fill="#1A1D4E"/>
<path d="M12.111 34.4614C7.02561 35.4501 7.30662 41.0328 8.19206 42.2794C8.19206 42.2053 7.40081 36.6134 12.8774 36.4241C12.3907 35.8806 12.1185 35.1805 12.111 34.4531" fill="#E8F4E8"/>
<path d="M12.111 34.4614C7.02561 35.4501 7.30662 41.0328 8.19206 42.2794C8.19206 42.2053 7.40081 36.6134 12.8774 36.4241C12.3907 35.8806 12.1185 35.1805 12.111 34.4531" fill="#253988"/>
<path d="M12.5898 32.7552C12.3197 32.8209 11.8723 32.9771 11.3944 33.1771C10.6509 33.4883 9.83327 33.9054 9.49287 34.2531C8.89304 34.7478 8.37937 35.3372 7.97251 35.9978L7.9518 36.0307C7.37264 36.9614 7.05905 38.0309 7.04456 39.125C7.04456 39.2978 7.04456 39.4665 7.06941 39.6393C7.16769 40.6304 7.51439 41.4797 8.12579 42.2604C7.4174 41.026 6.83535 35.9475 12.0841 34.6143C12.1235 33.6698 12.5898 33.0511 13.4657 32.4961" fill="#D7ECD8"/>
<path d="M12.5898 32.7552C12.3197 32.8209 11.8723 32.9771 11.3944 33.1771C10.6509 33.4883 9.83327 33.9054 9.49287 34.2531C8.89304 34.7478 8.37937 35.3372 7.97251 35.9978L7.9518 36.0307C7.37264 36.9614 7.05905 38.0309 7.04456 39.125C7.04456 39.2978 7.04456 39.4665 7.06941 39.6393C7.16769 40.6304 7.51439 41.4797 8.12579 42.2604C7.4174 41.026 6.83535 35.9475 12.0841 34.6143C12.1235 33.6698 12.5898 33.0511 13.4657 32.4961" fill="#263581"/>
<path d="M36.0433 9.5C33.4458 11.8207 29.386 12.1664 24.8581 12.1664C23.8928 12.1664 22.9027 12.1664 21.9043 12.1376C20.906 12.1088 19.891 12.1046 18.8761 12.1046C13.7143 12.1046 8.48212 12.5161 4.41816 15.3718C0.416348 18.1616 -1.04601 23.087 0.772617 30.8845C0.830614 30.617 0.901039 30.3454 0.983892 30.0615C0.905182 25.634 1.92428 21.4205 6.15394 19.1615C9.69592 17.2687 14.2611 17.0918 18.2049 16.9518C20.6657 16.8654 23.1761 16.8202 25.6037 16.491C27.8408 16.1906 30.111 15.6351 32.058 14.4336C33.7088 13.4298 35.0457 11.9893 35.919 10.2736C35.1857 14.7998 33.1061 18.6512 28.3006 20.1161C33.3837 18.569 35.4177 14.3307 36.0433 9.5Z" fill="#56BA5F"/>
<path d="M36.0433 9.5C33.4458 11.8207 29.386 12.1664 24.8581 12.1664C23.8928 12.1664 22.9027 12.1664 21.9043 12.1376C20.906 12.1088 19.891 12.1046 18.8761 12.1046C13.7143 12.1046 8.48212 12.5161 4.41816 15.3718C0.416348 18.1616 -1.04601 23.087 0.772617 30.8845C0.830614 30.617 0.901039 30.3454 0.983892 30.0615C0.905182 25.634 1.92428 21.4205 6.15394 19.1615C9.69592 17.2687 14.2611 17.0918 18.2049 16.9518C20.6657 16.8654 23.1761 16.8202 25.6037 16.491C27.8408 16.1906 30.111 15.6351 32.058 14.4336C33.7088 13.4298 35.0457 11.9893 35.919 10.2736C35.1857 14.7998 33.1061 18.6512 28.3006 20.1161C33.3837 18.569 35.4177 14.3307 36.0433 9.5Z" fill="url(#paint4_linear_887_358)"/>
<path d="M35.919 10.2734C35.0469 11.9922 33.7099 13.4356 32.058 14.4417C30.111 15.6268 27.8408 16.1822 25.6037 16.4991C23.1596 16.8283 20.6657 16.8735 18.2049 16.9599C14.2611 17.0998 9.6959 17.2891 6.15392 19.186C1.92426 21.4368 0.905166 25.6503 0.983876 30.0778L1.10816 29.691C4.97327 17.2685 19.4726 22.2287 28.3089 20.1489C33.1061 18.6511 35.1857 14.7997 35.919 10.2734Z" fill="url(#paint5_linear_887_358)"/>
<defs>
<linearGradient id="paint0_linear_887_358" x1="22.737" y1="15.1866" x2="9.91645" y2="47.2965" gradientUnits="userSpaceOnUse">
<stop stop-color="#243E90"/>
<stop offset="1" stop-color="#75C485"/>
</linearGradient>
<linearGradient id="paint1_linear_887_358" x1="24.2201" y1="15.7805" x2="11.3995" y2="47.8904" gradientUnits="userSpaceOnUse">
<stop stop-color="#253885"/>
<stop offset="0.03" stop-color="#273B85"/>
<stop offset="0.47" stop-color="#446E82"/>
<stop offset="0.81" stop-color="#568E81"/>
<stop offset="1" stop-color="#5D9A80"/>
</linearGradient>
<linearGradient id="paint2_linear_887_358" x1="24.2268" y1="15.7506" x2="11.3829" y2="47.8819" gradientUnits="userSpaceOnUse">
<stop stop-color="#22205F"/>
<stop offset="0.43" stop-color="#3F5B6F"/>
<stop offset="0.81" stop-color="#55897B"/>
<stop offset="1" stop-color="#5D9A80"/>
</linearGradient>
<linearGradient id="paint3_linear_887_358" x1="24.2201" y1="15.7805" x2="11.3995" y2="47.8904" gradientUnits="userSpaceOnUse">
<stop stop-color="#253885"/>
<stop offset="0.03" stop-color="#273B85"/>
<stop offset="0.47" stop-color="#446E82"/>
<stop offset="0.81" stop-color="#568E81"/>
<stop offset="1" stop-color="#5D9A80"/>
</linearGradient>
<linearGradient id="paint4_linear_887_358" x1="10.2386" y1="4.66103" x2="23.3754" y2="30.0026" gradientUnits="userSpaceOnUse">
<stop stop-color="#243E90"/>
<stop offset="1" stop-color="#75C485"/>
</linearGradient>
<linearGradient id="paint5_linear_887_358" x1="10.2842" y1="4.63624" x2="23.4209" y2="29.9778" gradientUnits="userSpaceOnUse">
<stop stop-color="#253988"/>
<stop offset="0.08" stop-color="#2B4487"/>
<stop offset="0.5" stop-color="#497784"/>
<stop offset="0.82" stop-color="#5B9782"/>
<stop offset="1" stop-color="#62A381"/>
</linearGradient>
</defs>
</svg>
